<svg xmlns="http://www.w3.org/2000/svg" viewBox="0 0 374.91 90"><defs><style>.cls-1{fill:#231815;}</style></defs><g id="圖層_5" data-name="圖層 5"><path class="cls-1" d="M25.18,64.54a8.2,8.2,0,1,0,8.19,8.19A8.2,8.2,0,0,0,25.18,64.54Zm4.17,8.19a4.17,4.17,0,1,1-4.17-4.16A4.17,4.17,0,0,1,29.35,72.73Z"/><path class="cls-1" d="M40.39,14.89a21.68,21.68,0,0,0-36.46,16V31c0,4.89,1.64,9.26,5.32,14.18l.07.09L24.06,62.75a2,2,0,0,0,3.08,0L41.88,45.23a2,2,0,0,0,.47-1.46,2,2,0,0,0-.71-1.37,2,2,0,0,0-1.3-.47,2,2,0,0,0-1.54.71L25.6,58.33,12.44,42.69c-3-4-4.38-7.49-4.48-11.27V31a17.66,17.66,0,0,1,29.69-13.2,12.18,12.18,0,0,1,4.13,9.8c-.29,3.61-1.65,6.09-4.15,7.58a6.6,6.6,0,0,1-2.63.87V25.31a2,2,0,0,0-.8-1.6l-7.8-5.87a2,2,0,0,0-2.42,0l-7.8,5.87a2,2,0,0,0-.81,1.6V40.36a2,2,0,0,0,2,2H23.6a2,2,0,0,0,0-4H19.39v-12L25.18,22,31,26.32v9a9.27,9.27,0,0,1-4-3.81,2,2,0,0,0-3.69.49,2,2,0,0,0,.21,1.53,12.93,12.93,0,0,0,7.89,6.2,11.7,11.7,0,0,0,2.92.38,10.57,10.57,0,0,0,5.43-1.48c3.65-2.18,5.7-5.78,6.1-10.71A16.15,16.15,0,0,0,40.39,14.89Z"/><path class="cls-1" d="M74.29,66.29q.1-.26.18-.48v0l.06-.16-.16,0-.95-.21-.13,0,0,.13,0,0a6.93,6.93,0,0,1-.94,1.81v-1H69.07l.22-.51,0,0,.06-.16-.17,0-1-.21-.12,0,0,.11v0A6.78,6.78,0,0,1,66.37,68l0,0-.13.13.16.1.86.54.1.06.06-.06V70h4.17v.83H67.7l0,.11-.6,2.93,0,.18h3.2a10.94,10.94,0,0,1-3.73,1.89h0l-.18.06.1.16L67,77l.06.11.12,0,0,0a10.46,10.46,0,0,0,4.39-2.75v3h1.26V74H76a5.11,5.11,0,0,1-.1,1.15c0,.12-.15.29-.53.29s-1.06,0-1.63,0h-.25l0,.2.25.93,0,.11H74l1.54,0A1.51,1.51,0,0,0,77,75.92,7.9,7.9,0,0,0,77.34,73v-.19H72.81V72H76.9V68.76H75.69l.6-.22.17-.06-.09-.15,0,0a7.21,7.21,0,0,0-.54-.83h2.08V66.29h-3.6ZM72.81,70.8V70h2.78v.83ZM71.55,72v.85h-3L68.8,72Zm.2-4,0,0-.12.13.15.1.82.51H70.26l.64-.23.17-.06L71,68.31l0,0a8.72,8.72,0,0,0-.52-.77h1.71C72,67.66,71.89,67.82,71.75,68Zm1,.79,0,0,0,0a9,9,0,0,0,.89-1.26h.66a8.82,8.82,0,0,1,.84,1.3Zm-5.36,0,0,0a9.07,9.07,0,0,0,1-1.21H69a8.82,8.82,0,0,1,.83,1.26H67.38Z"/><polygon class="cls-1" points="84.17 67 84.17 67.97 84.17 68.12 84.32 68.12 93.3 68.12 93.45 68.12 93.45 67.97 93.45 67 93.45 66.85 93.3 66.85 84.32 66.85 84.17 66.85 84.17 67"/><polygon class="cls-1" points="83.17 74.73 83.02 74.73 83.02 74.88 83.02 75.88 83.02 76.03 83.17 76.03 94.44 76.03 94.59 76.03 94.59 75.88 94.59 74.88 94.59 74.73 94.44 74.73 83.17 74.73"/><path class="cls-1" d="M111.33,76.28a9.2,9.2,0,0,1-2.61-2.06,10.72,10.72,0,0,0,1.56-5.36h1V67.6h-3.94a16.13,16.13,0,0,0,.41-1.8v0l0-.14-.15,0-.93-.17-.15,0,0,.15v0a12.66,12.66,0,0,1-1.11,3.58h0V68.06h-2.13V65.62H102v2.44H99.77v1.26H102V71.5h-1.75v5.64h1.25v-.89h3.14l0,0,.09.13.52.83.08.12.12-.07,0,0a10,10,0,0,0,2.46-2,10.4,10.4,0,0,0,2.66,2.09l0,0,.12.06.08-.1.57-.78.1-.14-.15-.08Zm-6.28-4.75,0,0,.11.14.12-.14,0,0a6.79,6.79,0,0,0,.49-.67,9.42,9.42,0,0,0,1.34,3.37A7.82,7.82,0,0,1,105.05,76V71.53Zm4-2.67a9.83,9.83,0,0,1-1.11,4.27,7.84,7.84,0,0,1-1-2.92v0l0-.17-.16.05-.45.13a14.44,14.44,0,0,0,.62-1.31Zm-5.26,3.83v2.37h-2.25V72.69Zm.72-2.06,0,0-.07.09.07.09.54.66h-1.75V69.32h2.06A8.12,8.12,0,0,1,104.51,70.63Z"/><path class="cls-1" d="M128,67.18v0h0v-.88h-3.51v10A27.51,27.51,0,0,0,123.39,73v0l0-.13-.13,0-.81.25-.16,0,.07.15v0c.22.53.43,1.06.61,1.59-.33.14-.72.29-1.2.46V72.69h2.52v-6H123a10.2,10.2,0,0,0-.39-1.18v0l0-.11-.12,0-.94.17-.18,0,.07.17,0,0c.1.23.22.53.35.89h-1.23v.65l-.12,0-.9-.34-.15-.06,0,.15v0c-.24.68-.49,1.36-.75,2l-.83.11A19.74,19.74,0,0,0,119.1,66v0l0-.15-.15,0-1-.27-.14,0,0,.14v0a16.7,16.7,0,0,1-1.54,3.76l0,.05v.06l.17.94,0,.14h.18c.48,0,.95-.11,1.32-.17A27.26,27.26,0,0,1,116.59,73l0,0v.08l.26,1,0,.12H117a11.85,11.85,0,0,0,1.67-.31,5.27,5.27,0,0,1-.22.49,4,4,0,0,1-2,1.73l0,0-.13.06,0,.13.38.92.06.14.14-.07h0a4.77,4.77,0,0,0,2.47-2.17,10,10,0,0,0,.94-4v-.18l-.14,0-.87-.08-.15,0,0,.16v0a13.57,13.57,0,0,1-.19,1.52,9.73,9.73,0,0,1-1,.26,33.72,33.72,0,0,0,2.42-5.25l0,0,0-.08v8.15c0,.08,0,.15-.15.21h0l-.12.06,0,.13.31.84,0,.13.14,0h0a18.15,18.15,0,0,0,2.49-.89l.24.84v.05l0,.17.16-.07.79-.36,0,0v.64h1.19V75l.22.72,0,.1h.14a2,2,0,0,0,1.66-.71,3.48,3.48,0,0,0,.34-1.73,7.32,7.32,0,0,0-.87-3C127.55,69.35,127.8,68.29,128,67.18Zm-6.32,1.95V67.85h1.33v1.28Zm0,2.43V70.29h1.33v1.27Zm4-4.08h1.06c-.2,1-.45,2-.75,3v.06l0,.07a5.55,5.55,0,0,1,.89,2.73,2.58,2.58,0,0,1-.14,1,.7.7,0,0,1-.5.28,2.43,2.43,0,0,1-.33,0l-.15,0h-.09Z"/><path class="cls-1" d="M137,71.82l.09,0V70.49l-.22.11-.06,0L136,71v-2h1.12v-1.2H136V65.5H134.7v2.36h-1.52v1.2h1.52v2.46a13.5,13.5,0,0,1-1.54.43h0L133,72l0,.15.24.94,0,.15.14,0,.05,0c.4-.12.82-.24,1.23-.39v3c0,.2-.06.26-.26.26a10,10,0,0,1-1-.06h-.05l-.21,0,0,.21.2.9,0,.12h1.3A1.09,1.09,0,0,0,136,76V72.29c.28-.11.55-.24.81-.37Z"/><path class="cls-1" d="M144.86,75.72A7,7,0,0,1,143,74.31a5.57,5.57,0,0,0,1.53-1.08l0,0,.11-.11-.11-.1-.57-.58-.1-.09h.45V71.26h-5.57v1.06h1.56a8.8,8.8,0,0,1-1.74.72h-.05l-.07,0c0-.22,0-.44,0-.67V68.54H140V69l-1.4.16h-.16l0,.16.1.7,0,.15.14,0,1.27-.14v.27c0,.29.13.78,1,.78h3v-1h-2.63c-.08,0-.11,0-.11-.12v-.14l1.67-.16.16,0,0-.14.16,0,.83.24.14,0,0-.14,0,0a9.61,9.61,0,0,0,.39-1.64h0v-.57h-3.39V67.1h2.8V66h-2.8v-.55H140v2h-2.75v5a8.13,8.13,0,0,1-1,4l0,0-.07.11.1.08.71.63.14.12.09-.16,0,0a8.44,8.44,0,0,0,.95-2.58l0,0,.42.64.07.1.11,0h0a8.6,8.6,0,0,0,2.47-1.32l.06.18a9.83,9.83,0,0,1-3.19,1.65l-.05,0L138,76l.11.17.46.68.06.1.11,0h0a9.52,9.52,0,0,0,1.22-.52l0,.1.28.77,0,.1h.83a1.43,1.43,0,0,0,1.33-.56,3.1,3.1,0,0,0,.24-1.22,7.3,7.3,0,0,0,1.55,1.21l0,0,.13.08.07-.13.45-.78.07-.13-.13-.07Zm-1.11-3.31,0,0a5.67,5.67,0,0,1-1.38,1,3.79,3.79,0,0,0-.7-1,.94.94,0,0,1,.1-.1h2.11Zm-2.21,3a1.93,1.93,0,0,1-.11.75.58.58,0,0,1-.4.12h-.86A10.62,10.62,0,0,0,141.54,75.38Zm1.57-6-.06.15h0l-.1-.63,0-.14-.14,0-1.54.15v-.35h2.13a5.86,5.86,0,0,1-.24.77Zm-4.69,3.92h0l.4.67.07.1.11,0,0,0a8.49,8.49,0,0,0,1.76-.86l.09.11a8.68,8.68,0,0,1-2.52,1.22l0,0-.06,0A12,12,0,0,0,138.42,73.27Z"/><path class="cls-1" d="M150.05,73h-.15v1.18h5.82V73h-2.31v-.61h2V71.28h-2v-.53h2.16V65.92h-5.51v4.83h2.17v.53h-2v1.11h2V73Zm2.23-4.35c-.11-.48-.24-.94-.37-1.35v0l0-.14-.14,0-.54.16V67h1.1Zm-1.1-.61c.13.45.25.91.35,1.39v0l0,.15.16,0,.55-.15v.23h-1.1Zm2.15,1.37.55.19.14.05,0-.15v0a9.82,9.82,0,0,0,.38-1.65v1.86h-1.13Zm1.13-2.18-.05,0-.61-.16-.17,0v.22a11.43,11.43,0,0,1-.28,1.55V67h1.13Z"/><path class="cls-1" d="M152.74,76.94a22.74,22.74,0,0,0-.17-2.32v0l0-.15-.15,0-.76.1-.14,0v.18c0,.52.07,1.23.1,2.28v.21l.16,0,.83-.09.13,0v-.17Z"/><path class="cls-1" d="M150.4,74.38l-.16,0v.2a7.93,7.93,0,0,1-.47,2.27l0,0-.06.15.16,0,.82.25.14.05,0-.14,0,0a10.88,10.88,0,0,0,.46-2.52v-.18l-.14,0Z"/><path class="cls-1" d="M158.92,67.84V65.52h-1.26v5.4h-1.77v6.41h1.23v-.66h2.71v.66h1.23V70.92h-2.14V69h2.67V67.84h-2.67Zm.91,4.28v3.34h-2.71V72.12Z"/><path class="cls-1" d="M155.74,76.4a18.37,18.37,0,0,0-.56-2v0l0-.14-.14,0-.74.21-.15,0,0,.15,0,0c.22.72.4,1.39.54,2v0l0,.17.16-.07.75-.28.12,0,0-.13Z"/><path class="cls-1" d="M154.31,76.7c-.11-.72-.26-1.42-.44-2.15v0l0-.14-.14,0-.75.16-.15,0,0,.15v0a20.32,20.32,0,0,1,.36,2.12v0l0,.16.16,0,.82-.16.14,0,0-.14Z"/><path class="cls-1" d="M74.19,50.49a13.51,13.51,0,0,1-9.28-4.12l-3.22,3.79A17.37,17.37,0,0,0,74.1,55.27c7.62,0,12.26-4.54,12.26-10.13,0-5.12-3-7.67-7.1-9.42l-4.79-2c-2.84-1.14-5.63-2.27-5.63-5.26,0-2.79,2.32-4.5,5.87-4.5a11.11,11.11,0,0,1,7.67,3.13l2.89-3.5a14.93,14.93,0,0,0-10.56-4.41c-6.63,0-11.46,4.12-11.46,9.61,0,5.07,3.74,7.72,7.1,9.14L75.18,40c3.23,1.42,5.59,2.41,5.59,5.59C80.77,48.5,78.41,50.49,74.19,50.49Z"/><path class="cls-1" d="M102.51,28c-6.11,0-11.89,5.26-11.89,13.73s5.64,13.59,12.7,13.59a15.78,15.78,0,0,0,8.8-2.74l-1.89-3.46A11,11,0,0,1,104,51c-4.5,0-7.63-3-8-7.95h16.9a14.29,14.29,0,0,0,.24-2.75C113.12,32.92,109.42,28,102.51,28ZM95.93,39.31c.52-4.59,3.41-7.1,6.68-7.1,3.78,0,5.82,2.61,5.82,7.1Z"/><path class="cls-1" d="M136,48.45a8.91,8.91,0,0,1-5.68,2.37c-4.36,0-7.34-3.64-7.34-9.14s3.12-9.23,7.48-9.23a6.86,6.86,0,0,1,4.69,2l2.7-3.55a11.19,11.19,0,0,0-7.63-3c-6.86,0-12.88,5-12.88,13.73s5.4,13.59,12.46,13.59a12.61,12.61,0,0,0,8.42-3.22Z"/><path class="cls-1" d="M152.9,28c-6.44,0-12.27,5-12.27,13.73s5.83,13.59,12.27,13.59,12.27-5,12.27-13.59S159.34,28,152.9,28Zm0,22.87c-4.07,0-6.63-3.64-6.63-9.14s2.56-9.23,6.63-9.23,6.68,3.69,6.68,9.23S157,50.82,152.9,50.82Z"/><path class="cls-1" d="M185.2,28c-3.55,0-6.21,1.94-8.62,4.26h-.14l-.43-3.6h-4.45V54.66H177V36.19c2.32-2.32,4-3.55,6.39-3.55,3.08,0,4.41,1.8,4.41,6.3V54.66h5.44V38.27C193.2,31.64,190.74,28,185.2,28Z"/><path class="cls-1" d="M217.31,26.58l.23,4.31c-2.13-1.8-4-2.94-7-2.94-5.83,0-11.18,5.26-11.18,13.73s4.21,13.59,10.75,13.59a10.91,10.91,0,0,0,7.58-3.55h.14l.47,2.94h4.45V16.91h-5.44Zm0,21c-1.9,2.18-3.74,3.17-5.92,3.17-4.07,0-6.4-3.26-6.4-9.18,0-5.64,2.94-9.09,6.59-9.09a8.17,8.17,0,0,1,5.73,2.36Z"/><polygon class="cls-1" points="262.49 34.01 247.57 34.01 247.57 19.8 242.08 19.8 242.08 54.66 247.57 54.66 247.57 38.79 262.49 38.79 262.49 54.66 267.98 54.66 267.98 19.8 262.49 19.8 262.49 34.01"/><path class="cls-1" d="M287.07,28c-6.44,0-12.27,5-12.27,13.73s5.83,13.59,12.27,13.59,12.26-5,12.26-13.59S293.51,28,287.07,28Zm0,22.87c-4.08,0-6.63-3.64-6.63-9.14s2.55-9.23,6.63-9.23,6.67,3.69,6.67,9.23S291.19,50.82,287.07,50.82Z"/><path class="cls-1" d="M334.47,28c-3.26,0-5.92,2-8.47,4.78-1.14-3-3.32-4.78-7.2-4.78-3.22,0-5.83,1.94-8.05,4.31h-.15l-.42-3.65h-4.45V54.66h5.4V36.19c2.17-2.37,4.12-3.55,5.87-3.55,3,0,4.35,1.8,4.35,6.3V54.66h5.45V36.19c2.18-2.37,4.07-3.55,5.87-3.55,2.94,0,4.36,1.8,4.36,6.3V54.66h5.45V38.27C342.48,31.64,339.92,28,334.47,28Z"/><path class="cls-1" d="M371,40.31c0-7.39-3.7-12.36-10.61-12.36-6.11,0-11.89,5.26-11.89,13.73s5.64,13.59,12.69,13.59A15.79,15.79,0,0,0,370,52.53l-1.89-3.46A11.1,11.1,0,0,1,361.89,51c-4.5,0-7.62-3-8.05-7.95h16.91A14.29,14.29,0,0,0,371,40.31Zm-17.2-1c.53-4.59,3.42-7.1,6.68-7.1,3.79,0,5.83,2.61,5.83,7.1Z"/></g></svg>